<svg xmlns="http://www.w3.org/2000/svg" xmlns:xlink="http://www.w3.org/1999/xlink" width="500" zoomAndPan="magnify" viewBox="0 0 375 374.999991" height="500" preserveAspectRatio="xMidYMid meet" version="1.0"><defs><g/><clipPath id="92acd42634"><path d="M 122.09375 102.367188 L 250 102.367188 L 250 225.367188 L 122.09375 225.367188 Z M 122.09375 102.367188 " clip-rule="nonzero"/></clipPath></defs><rect x="-37.5" width="450" fill="#ffffff" y="-37.499999" height="449.999989" fill-opacity="1"/><rect x="-37.5" width="450" fill="#000000" y="-37.499999" height="449.999989" fill-opacity="1"/><g clip-path="url(#92acd42634)"><path fill="#ffffff" d="M 248.164062 136.226562 C 242.882812 115.746094 225.359375 102.554688 204.207031 102.542969 C 179.722656 102.523438 155.234375 102.535156 130.753906 102.535156 L 140.347656 119.4375 C 161.644531 119.398438 182.933594 119.410156 204.234375 119.425781 C 211.261719 119.425781 217.589844 121.488281 222.925781 126.167969 C 231.234375 133.449219 233.757812 142.890625 232.652344 153.496094 C 231.390625 165.769531 223.335938 176.078125 212.34375 178.714844 C 207.683594 179.839844 202.667969 179.398438 197.839844 179.882812 C 195.105469 180.164062 193.714844 179.027344 192.421875 176.746094 C 183.523438 161.085938 174.488281 145.496094 165.496094 129.898438 C 163.855469 127.046875 162.066406 127.015625 160.445312 129.816406 C 158.058594 133.945312 155.671875 138.082031 153.285156 142.214844 C 143.199219 159.695312 133.109375 177.164062 123.035156 194.65625 C 122.730469 195.195312 122.523438 195.785156 122.097656 196.730469 L 124.832031 196.730469 C 143.765625 196.730469 162.699219 196.773438 181.632812 196.667969 C 183.011719 196.65625 183.964844 196.949219 184.742188 197.625 C 185.238281 198.035156 185.648438 198.589844 186.058594 199.316406 C 191.003906 208.054688 196.058594 216.730469 201.035156 225.460938 L 220.621094 225.460938 C 218.285156 221.402344 216.046875 217.539062 213.824219 213.679688 C 210.660156 208.199219 207.511719 202.710938 204.390625 197.261719 C 204.765625 196.964844 204.882812 196.796875 205.019531 196.789062 C 205.585938 196.734375 206.167969 196.714844 206.746094 196.695312 C 215.402344 196.335938 223.25 193.625 230.367188 188.71875 C 247.953125 176.65625 252.894531 154.609375 248.164062 136.226562 Z M 151.238281 179.644531 C 155.152344 172.847656 158.929688 166.296875 162.925781 159.355469 C 165.179688 163.269531 167.355469 167.054688 169.542969 170.863281 C 171.21875 173.753906 172.886719 176.667969 174.601562 179.644531 Z M 151.238281 179.644531 " fill-opacity="1" fill-rule="nonzero"/></g><g fill="#ffffff" fill-opacity="1"><g transform="translate(156.987639, 262.85322)"><g><path d="M 11.359375 0 C 13.648438 0 15.472656 -0.554688 16.828125 -1.671875 C 18.179688 -2.785156 18.859375 -4.3125 18.859375 -6.25 C 18.859375 -8.613281 17.765625 -10.367188 15.578125 -11.515625 C 17.097656 -12.703125 17.859375 -13.960938 17.859375 -15.296875 C 17.859375 -17.335938 17.242188 -18.835938 16.015625 -19.796875 C 14.785156 -20.753906 13.078125 -21.234375 10.890625 -21.234375 L 2.65625 -21.234375 L 2.65625 0 Z M 10.296875 -17.859375 C 11.378906 -17.859375 12.195312 -17.660156 12.75 -17.265625 C 13.300781 -16.867188 13.578125 -16.191406 13.578125 -15.234375 C 13.578125 -14.359375 13.222656 -13.695312 12.515625 -13.25 C 11.804688 -12.800781 10.859375 -12.578125 9.671875 -12.578125 L 6.6875 -12.578125 L 6.6875 -17.859375 Z M 11.328125 -9.296875 C 12.347656 -9.296875 13.15625 -9.023438 13.75 -8.484375 C 14.34375 -7.953125 14.640625 -7.195312 14.640625 -6.21875 C 14.640625 -5.300781 14.316406 -4.59375 13.671875 -4.09375 C 13.023438 -3.59375 12.148438 -3.34375 11.046875 -3.34375 L 6.6875 -3.34375 L 6.6875 -9.296875 Z M 11.328125 -9.296875 "/></g></g></g><g fill="#ffffff" fill-opacity="1"><g transform="translate(176.625365, 262.85322)"><g><path d="M 6.6875 -3.15625 L 6.6875 -9.109375 L 14.265625 -9.109375 L 13.609375 -12.328125 L 6.6875 -12.328125 L 6.6875 -18.046875 L 15.953125 -18.046875 L 15.328125 -21.234375 L 2.65625 -21.234375 L 2.65625 0 L 17.515625 0 L 16.859375 -3.15625 Z M 6.6875 -3.15625 "/></g></g></g><g fill="#ffffff" fill-opacity="1"><g transform="translate(194.764503, 262.85322)"><g><path d="M 16.515625 0 L 20.578125 0 L 20.578125 -21.234375 L 16.515625 -21.234375 L 16.515625 -7.0625 L 6.6875 -21.234375 L 2.65625 -21.234375 L 2.65625 0 L 6.6875 0 L 6.6875 -14.203125 Z M 16.515625 0 "/></g></g></g></svg>